<svg width="62" height="62" viewBox="0 0 62 62" fill="none" xmlns="http://www.w3.org/2000/svg">
<path d="M54.6667 10H6.44444C5.53092 10 4.65481 10.3629 4.00885 11.0089C3.3629 11.6548 3 12.5309 3 13.4444V47.8889C3 48.8024 3.3629 49.6785 4.00885 50.3245C4.65481 50.9704 5.53092 51.3333 6.44444 51.3333H54.6667C55.5802 51.3333 56.4563 50.9704 57.1023 50.3245C57.7482 49.6785 58.1111 48.8024 58.1111 47.8889V13.4444C58.1111 12.5309 57.7482 11.6548 57.1023 11.0089C56.4563 10.3629 55.5802 10 54.6667 10ZM32.2778 37.5556H15.0556C14.5988 37.5556 14.1607 37.3741 13.8378 37.0511C13.5148 36.7282 13.3333 36.2901 13.3333 35.8333C13.3333 35.3766 13.5148 34.9385 13.8378 34.6155C14.1607 34.2926 14.5988 34.1111 15.0556 34.1111H32.2778C32.7345 34.1111 33.1726 34.2926 33.4956 34.6155C33.8186 34.9385 34 35.3766 34 35.8333C34 36.2901 33.8186 36.7282 33.4956 37.0511C33.1726 37.3741 32.7345 37.5556 32.2778 37.5556ZM46.0556 30.6667H15.0556C14.5988 30.6667 14.1607 30.4852 13.8378 30.1622C13.5148 29.8393 13.3333 29.4012 13.3333 28.9444C13.3333 28.4877 13.5148 28.0496 13.8378 27.7266C14.1607 27.4037 14.5988 27.2222 15.0556 27.2222H46.0556C46.5123 27.2222 46.9504 27.4037 47.2734 27.7266C47.5963 28.0496 47.7778 28.4877 47.7778 28.9444C47.7778 29.4012 47.5963 29.8393 47.2734 30.1622C46.9504 30.4852 46.5123 30.6667 46.0556 30.6667ZM46.0556 23.7778H15.0556C14.5988 23.7778 14.1607 23.5963 13.8378 23.2734C13.5148 22.9504 13.3333 22.5123 13.3333 22.0556C13.3333 21.5988 13.5148 21.1607 13.8378 20.8378C14.1607 20.5148 14.5988 20.3333 15.0556 20.3333H46.0556C46.5123 20.3333 46.9504 20.5148 47.2734 20.8378C47.5963 21.1607 47.7778 21.5988 47.7778 22.0556C47.7778 22.5123 47.5963 22.9504 47.2734 23.2734C46.9504 23.5963 46.5123 23.7778 46.0556 23.7778Z" fill="black"/>
</svg>
