<svg width="62" height="62" viewBox="0 0 62 62" fill="none" xmlns="http://www.w3.org/2000/svg">
<g clip-path="url(#clip0_2029_28)">
<path d="M35.2815 11.0245C34.9334 10.1443 34.3347 9.3801 33.4307 8.8574C33.0871 8.65897 32.7413 8.52297 32.3957 8.4375C31.384 8.02083 30.2489 7.89597 29.0648 8.08796C23.7419 8.95178 22.2283 16.285 26.865 18.9307C28.3033 19.7514 31.3186 20.2097 33.0019 19.393C34.0342 19.1611 34.9629 18.5757 35.6335 17.6398C37.0299 15.6922 36.4116 12.9434 35.2815 11.0245Z" fill="black"/>
<path d="M21.6299 18.3914C21.5597 17.4949 21.1681 16.6318 20.5807 15.9397C20.5012 15.7581 20.4125 15.5824 20.3102 15.4172C19.138 13.5214 16.8636 13.6824 15.0619 14.4486C12.8125 15.4053 11.9626 17.8781 12.4739 20.131C12.9498 22.2252 14.7745 23.9001 16.9401 23.9412C19.8499 23.9965 21.8392 21.0589 21.6299 18.3914Z" fill="black"/>
<path d="M39.258 30.4124C39.2313 28.3233 39.3044 26.0489 38.6273 24.047C37.6312 21.1006 34.3285 20.9398 31.712 20.8172C28.855 20.6831 24.6441 20.293 22.777 23.0559C20.3661 26.6226 21.0684 32.3575 21.3885 36.3982C21.4378 37.022 22.1324 37.16 22.4631 36.8104C22.4664 36.8112 22.4696 36.8112 22.4731 36.8119C22.7949 37.1528 22.9628 37.1263 23.6607 37.1597C24.0015 37.1761 24.2049 36.8823 24.2389 36.5815C24.5547 33.7963 23.5016 29.2575 26.1134 27.6002C26.1117 27.7082 26.1114 27.8169 26.1107 27.9254C26.0691 27.9884 26.0346 28.06 26.0151 28.1452C25.9734 28.3245 25.9789 28.4516 25.9962 28.6243C26.053 32.1338 26.3458 35.625 26.2794 39.1457C26.1862 44.0537 26.6807 49.1098 26.0802 53.9831C26.0703 54.0624 26.0827 54.1307 26.1065 54.1919C26.0277 54.3624 26.0938 54.5987 26.317 54.6822C27.0295 54.9495 27.6694 54.8727 28.4301 54.9889C28.8585 55.0545 29.2576 54.8172 29.2702 54.3492C29.3361 51.8465 29.6086 49.3362 29.7832 46.8394C29.8563 45.7923 29.8749 44.7127 29.8234 43.6648C29.8033 43.4225 29.7822 43.1805 29.7602 42.9387C29.7528 42.8567 29.7471 42.7876 29.7421 42.7256C29.9009 42.6967 30.051 42.6602 30.1615 42.6483C30.7439 42.5844 31.276 42.6119 31.828 42.7623C31.939 44.2489 32.1223 45.7256 32.0977 47.2395C32.0593 49.6045 31.8646 51.9879 32.0539 54.3495C32.0859 54.7486 32.5127 54.8328 32.7294 54.617C33.3195 54.8506 34.0937 55.0322 34.6104 54.6014C34.6295 54.5853 34.6394 54.5655 34.6553 54.5484C34.9147 54.6698 35.2682 54.5531 35.283 54.1664C35.6269 45.3389 36.8283 36.225 35.3583 27.453C35.6819 27.5477 35.9838 27.7 36.2477 27.9532C36.9044 28.5844 36.7424 29.9115 36.7003 30.7215C36.6002 32.6674 36.1647 34.9359 37.2638 36.692C37.4216 36.9442 37.7083 37.0026 37.9491 36.9303C38.3323 37.0589 38.7809 36.9301 38.8763 36.4205C39.2479 34.4352 39.2843 32.4271 39.258 30.4124Z" fill="black"/>
<path d="M49.846 16.5572C49.4856 13.4993 45.2579 11.0188 42.6483 13.0881C41.5957 13.9227 41.1218 15.3327 41.0438 16.7708C40.7502 18.0265 40.9829 19.3997 41.7278 20.4433C42.1501 21.2881 42.7987 21.9926 43.7314 22.2901C44.3888 22.5002 45.049 22.4001 45.6656 22.147C48.0688 21.7674 50.1656 19.2684 49.846 16.5572Z" fill="black"/>
<path d="M21.1304 38.7798C21.1158 38.4694 20.9101 38.0912 20.5675 38.0404C20.1078 37.9725 19.6886 37.8917 19.2573 37.8511C19.1538 36.0108 19.1012 34.1682 19.1094 32.3246C19.1171 30.5917 18.852 27.8286 19.9282 26.3457C20.0213 26.2174 20.0609 26.0908 20.0674 25.9704C20.3158 25.6597 20.2708 25.1165 19.7899 25.0134C16.9413 24.4018 11.717 22.9714 9.95442 26.2104C8.28821 29.2721 9.30017 33.6405 9.34699 36.9482C9.35195 37.2764 9.57391 37.6017 9.90388 37.6794C10.4699 37.8132 10.9874 37.8796 11.5711 37.8883C11.8775 37.893 12.2513 37.6564 12.3011 37.3326C12.6172 35.2646 11.9142 33.1584 12.343 31.1105C12.6551 29.6179 13.0428 30.071 13.2455 31.078C13.4055 31.8712 13.4171 32.7036 13.431 33.5099C13.4709 35.8534 13.1684 38.221 13.0693 40.5627C12.9217 44.0574 12.9048 47.5563 13.0161 51.053C13.027 51.3904 13.2383 51.6867 13.5688 51.7791C14.4056 52.0129 15.1287 52.0969 15.9836 51.9607C16.3292 51.9057 16.508 51.5435 16.5355 51.2361C16.8549 47.6351 16.7496 44.0247 16.7268 40.4146C17.0813 40.4183 17.4318 40.4485 17.7848 40.5058C17.8497 44.1466 17.4526 47.7773 17.5802 51.4194C17.5938 51.8076 17.9203 52.227 18.3486 52.1873C19.022 52.1251 20.0285 52.1066 20.5398 51.5955C21.1457 50.9898 21.062 49.0469 21.1405 48.2351C21.4415 45.0989 21.2768 41.919 21.1304 38.7798ZM10.8936 36.3392C10.8782 36.337 10.8631 36.334 10.848 36.3318C10.82 35.3602 10.7635 34.3876 10.7182 33.4158C10.7969 34.4228 10.9327 35.4348 10.8936 36.3392Z" fill="black"/>
<path d="M51.6803 26.3189C50.2219 23.1089 44.6931 23.0061 41.9672 24.372C40.8415 24.9361 40.4179 25.74 40.3985 26.9799C40.3535 29.8634 40.8536 32.7732 40.8826 35.6657C40.9069 38.0825 39.6001 40.208 39.232 42.5683C38.793 45.3815 39.0995 48.2336 39.2922 51.0522C39.3162 51.4043 39.6093 51.5522 39.8684 51.5086C39.8768 51.5103 39.8828 51.5157 39.8917 51.517C40.5108 51.6143 41.168 51.7253 41.7942 51.7345C42.1837 51.7402 42.4537 51.4189 42.4767 51.052C42.6915 47.6237 42.6913 44.1833 42.6962 40.749C43.2875 40.7223 43.8722 40.7084 44.469 40.775C44.2539 44.2043 44.7028 47.6195 44.7405 51.0517C44.7447 51.4095 45.0655 51.8133 45.4579 51.7692C45.9474 51.7142 46.4314 51.628 46.9234 51.5908C47.2299 51.5678 47.5524 51.3896 47.6198 51.0607C48.4923 46.7978 47.7159 42.5265 47.6619 38.2296C47.6287 35.5609 48.6236 32.5614 48.1626 29.8607C48.197 29.8193 48.2225 29.7703 48.2453 29.7168C48.5465 30.3485 48.683 31.1063 48.818 31.7744C49.1032 33.1854 49.3995 34.9426 49.1289 36.3811C49.0551 36.7723 49.2313 37.2053 49.6541 37.3061C50.0507 37.4007 50.5031 37.4424 50.8739 37.3158C51.2487 37.595 51.8777 37.5452 52.0256 36.9588C52.8793 33.5853 53.1496 29.5528 51.6803 26.3189Z" fill="black"/>
</g>
</svg>
