<svg width="62" height="62" viewBox="0 0 62 62" fill="none" xmlns="http://www.w3.org/2000/svg">
<g clip-path="url(#clip0_2029_34)">
<path d="M48.45 39.159H8.55C8.17 39.197 7.8375 39.349 7.5525 39.615C7.2675 39.881 7.125 40.223 7.125 40.641V48.45C7.125 48.83 7.2675 49.1625 7.5525 49.4475C7.8375 49.7325 8.17 49.875 8.55 49.875H48.45C48.83 49.875 49.1625 49.7325 49.4475 49.4475C49.7325 49.1625 49.875 48.83 49.875 48.45V40.641C49.875 40.223 49.7325 39.8715 49.4475 39.5865C49.1625 39.3015 48.83 39.159 48.45 39.159ZM16.017 46.626C16.017 47.044 15.8745 47.3955 15.5895 47.6805C15.3045 47.9655 14.972 48.108 14.592 48.108H10.374C9.956 48.108 9.6045 47.9655 9.3195 47.6805C9.0345 47.3955 8.892 47.044 8.892 46.626V42.408C8.892 42.028 9.0345 41.6955 9.3195 41.4105C9.6045 41.1255 9.956 40.983 10.374 40.983H14.592C14.972 40.983 15.3045 41.1255 15.5895 41.4105C15.8745 41.6955 16.017 42.028 16.017 42.408V46.626ZM9.462 7.125H15.447C15.865 7.125 16.2165 7.2675 16.5015 7.5525C16.7865 7.8375 16.929 8.17 16.929 8.55V11.001C16.929 11.419 16.7865 11.7705 16.5015 12.0555C16.2165 12.3405 15.865 12.483 15.447 12.483H9.462C9.044 12.483 8.702 12.3405 8.436 12.0555C8.17 11.7705 8.037 11.419 8.037 11.001V8.55C8.037 8.17 8.17 7.8375 8.436 7.5525C8.702 7.2675 9.044 7.125 9.462 7.125ZM20.178 7.125H26.163C26.581 7.125 26.923 7.2675 27.189 7.5525C27.455 7.8375 27.588 8.17 27.588 8.55V11.001C27.588 11.419 27.455 11.7705 27.189 12.0555C26.923 12.3405 26.581 12.483 26.163 12.483H20.178C19.76 12.483 19.4085 12.3405 19.1235 12.0555C18.8385 11.7705 18.696 11.419 18.696 11.001V8.55C18.696 8.17 18.8385 7.8375 19.1235 7.5525C19.4085 7.2675 19.76 7.125 20.178 7.125ZM30.837 7.125H36.822C37.24 7.125 37.5915 7.2675 37.8765 7.5525C38.1615 7.8375 38.304 8.17 38.304 8.55V11.001C38.304 11.419 38.1615 11.7705 37.8765 12.0555C37.5915 12.3405 37.24 12.483 36.822 12.483H30.837C30.419 12.483 30.077 12.3405 29.811 12.0555C29.545 11.7705 29.412 11.419 29.412 11.001V8.55C29.412 8.17 29.545 7.8375 29.811 7.5525C30.077 7.2675 30.419 7.125 30.837 7.125ZM41.553 7.125H47.538C47.956 7.125 48.298 7.2675 48.564 7.5525C48.83 7.8375 48.963 8.17 48.963 8.55V11.001C48.963 11.419 48.83 11.7705 48.564 12.0555C48.298 12.3405 47.956 12.483 47.538 12.483H41.553C41.135 12.483 40.7835 12.3405 40.4985 12.0555C40.2135 11.7705 40.071 11.419 40.071 11.001V8.55C40.071 8.17 40.2135 7.8375 40.4985 7.5525C40.7835 7.2675 41.135 7.125 41.553 7.125ZM9.462 17.784H15.447C15.865 17.784 16.2165 17.9265 16.5015 18.2115C16.7865 18.4965 16.929 18.848 16.929 19.266V21.717C16.929 22.097 16.7865 22.4295 16.5015 22.7145C16.2165 22.9995 15.865 23.142 15.447 23.142H9.462C9.044 23.142 8.702 22.9995 8.436 22.7145C8.17 22.4295 8.037 22.097 8.037 21.717V19.266C8.037 18.848 8.17 18.4965 8.436 18.2115C8.702 17.9265 9.044 17.784 9.462 17.784ZM20.178 17.784H26.163C26.581 17.784 26.923 17.9265 27.189 18.2115C27.455 18.4965 27.588 18.848 27.588 19.266V21.717C27.588 22.097 27.455 22.4295 27.189 22.7145C26.923 22.9995 26.581 23.142 26.163 23.142H20.178C19.76 23.142 19.4085 22.9995 19.1235 22.7145C18.8385 22.4295 18.696 22.097 18.696 21.717V19.266C18.696 18.848 18.8385 18.4965 19.1235 18.2115C19.4085 17.9265 19.76 17.784 20.178 17.784ZM30.837 17.784H36.822C37.24 17.784 37.5915 17.9265 37.8765 18.2115C38.1615 18.4965 38.304 18.848 38.304 19.266V21.717C38.304 22.097 38.1615 22.4295 37.8765 22.7145C37.5915 22.9995 37.24 23.142 36.822 23.142H30.837C30.419 23.142 30.077 22.9995 29.811 22.7145C29.545 22.4295 29.412 22.097 29.412 21.717V19.266C29.412 18.848 29.545 18.4965 29.811 18.2115C30.077 17.9265 30.419 17.784 30.837 17.784ZM9.462 28.5H15.447C15.865 28.5 16.2165 28.6425 16.5015 28.9275C16.7865 29.2125 16.929 29.545 16.929 29.925V32.376C16.929 32.794 16.7865 33.1455 16.5015 33.4305C16.2165 33.7155 15.865 33.858 15.447 33.858H9.462C9.044 33.858 8.702 33.7155 8.436 33.4305C8.17 33.1455 8.037 32.794 8.037 32.376V29.925C8.037 29.545 8.17 29.2125 8.436 28.9275C8.702 28.6425 9.044 28.5 9.462 28.5ZM20.178 28.5H26.163C26.581 28.5 26.923 28.6425 27.189 28.9275C27.455 29.2125 27.588 29.545 27.588 29.925V32.376C27.588 32.794 27.455 33.1455 27.189 33.4305C26.923 33.7155 26.581 33.858 26.163 33.858H20.178C19.76 33.858 19.4085 33.7155 19.1235 33.4305C18.8385 33.1455 18.696 32.794 18.696 32.376V29.925C18.696 29.545 18.8385 29.2125 19.1235 28.9275C19.4085 28.6425 19.76 28.5 20.178 28.5ZM30.837 28.5H36.822C37.24 28.5 37.5915 28.6425 37.8765 28.9275C38.1615 29.2125 38.304 29.545 38.304 29.925V32.376C38.304 32.794 38.1615 33.1455 37.8765 33.4305C37.5915 33.7155 37.24 33.858 36.822 33.858H30.837C30.419 33.858 30.077 33.7155 29.811 33.4305C29.545 33.1455 29.412 32.794 29.412 32.376V29.925C29.412 29.545 29.545 29.2125 29.811 28.9275C30.077 28.6425 30.419 28.5 30.837 28.5ZM41.553 17.784H47.538C47.956 17.784 48.298 17.9265 48.564 18.2115C48.83 18.4965 48.963 18.848 48.963 19.266V21.717C48.963 22.097 48.83 22.4295 48.564 22.7145C48.298 22.9995 47.956 23.142 47.538 23.142H41.553C41.135 23.142 40.7835 22.9995 40.4985 22.7145C40.2135 22.4295 40.071 22.097 40.071 21.717V19.266C40.071 18.848 40.2135 18.4965 40.4985 18.2115C40.7835 17.9265 41.135 17.784 41.553 17.784Z" fill="black"/>
</g>
</svg>
