<svg width="72" height="62" viewBox="0 0 72 62" fill="none"
    xmlns="http://www.w3.org/2000/svg">
    <g clip-path="url(#clip0_2029_31)">
        <path d="M43.5994 28.4032L36.9084 27.242L33.916 20L30.9236 27.242L24.2327 28.4032L29.0745 34.0404L27.9314 42L33.916 38.2418L39.9007 42L38.7575 34.0404L43.5994 28.4032Z" fill="black"/>
        <path d="M21.0409 28.4032L14.3499 27.242L11.3575 20L8.36542 27.242L1.67432 28.4032L6.51599 34.0404L5.37301 42L11.3575 38.2418L17.3423 42L16.1992 34.0404L21.0409 28.4032Z" fill="black"/>
        <path d="M66.1578 28.4032L59.4667 27.242L56.4744 20L53.4822 27.242L46.7913 28.4032L51.6329 34.0404L50.4898 42L56.4744 38.2418L62.4591 42L61.3161 34.0404L66.1578 28.4032Z" fill="black"/>
    </g>
</svg>
